<svg xmlns="http://www.w3.org/2000/svg" width="60" height="59.997" viewBox="0 0 60 59.997">
  <g id="Group_568" data-name="Group 568" transform="translate(-5323.523 -323.625)">
    <path id="Path_348" data-name="Path 348" d="M9.77-.375H49.478A10.159,10.159,0,0,1,59.625,9.772v39.7A10.157,10.157,0,0,1,49.48,59.622H9.77A10.157,10.157,0,0,1-.375,49.476V9.77A10.157,10.157,0,0,1,9.77-.375ZM49.48,56.981a7.514,7.514,0,0,0,7.505-7.505V9.772a7.516,7.516,0,0,0-7.507-7.507H9.77A7.514,7.514,0,0,0,2.265,9.77V49.476A7.514,7.514,0,0,0,9.77,56.981Z" transform="translate(5323.898 324)" fill="#997ef2"/>
    <path id="Path_349" data-name="Path 349" d="M0,0H35.409V8.163H0ZM32.777,2.632H2.632v2.9H32.777Z" transform="translate(5344.671 360.609) rotate(-45.002)" fill="#997ef2"/>
    <path id="Path_347" data-name="Path 347" d="M3273.222,668.962a1.314,1.314,0,0,1-1.141-1.97l5.26-9.168a1.316,1.316,0,0,1,2.071-.275l3.91,3.91a1.314,1.314,0,0,1-.275,2.072l-9.171,5.258A1.314,1.314,0,0,1,3273.222,668.962Zm5.546-8.337-1.988,3.465,3.466-1.988Z" transform="translate(2067.922 -297.805)" fill="#997ef2"/>
    <path id="Path_350" data-name="Path 350" d="M8.279,2.257H.941a1.316,1.316,0,0,1,0-2.632H8.279a1.316,1.316,0,0,1,0,2.632Z" transform="translate(5332.797 368.908)" fill="#997ef2"/>
  </g>
</svg>
