<svg xmlns="http://www.w3.org/2000/svg" width="24.273" height="24.273" viewBox="0 0 24.273 24.273">
  <g id="Group_105" data-name="Group 105" transform="translate(-3757.367 -652.801)">
    <path id="Rectangle_186" data-name="Rectangle 186" d="M3.913-.15H20.059a4.069,4.069,0,0,1,4.064,4.064V20.059a4.068,4.068,0,0,1-4.063,4.063H3.913A4.068,4.068,0,0,1-.15,20.059V3.913A4.068,4.068,0,0,1,3.913-.15ZM20.06,23.173a3.117,3.117,0,0,0,3.114-3.114V3.914A3.118,3.118,0,0,0,20.059.8H3.913A3.117,3.117,0,0,0,.8,3.913V20.059a3.117,3.117,0,0,0,3.114,3.114Z" transform="translate(3757.517 652.951)" fill="#997ef2"/>
    <path id="Rectangle_187" data-name="Rectangle 187" d="M1.223-.15H14.6a1.372,1.372,0,0,1,1.37,1.37V14.6A1.373,1.373,0,0,1,14.6,15.973H1.22A1.372,1.372,0,0,1-.15,14.6V1.223A1.374,1.374,0,0,1,1.223-.15ZM14.6,15.024a.422.422,0,0,0,.422-.422V1.22A.421.421,0,0,0,14.6.8H1.223A.424.424,0,0,0,.8,1.223V14.6a.421.421,0,0,0,.421.421Z" transform="translate(3761.594 657.025)" fill="#997ef2"/>
    <path id="Rectangle_188" data-name="Rectangle 188" d="M1.223-.15H4.9A1.375,1.375,0,0,1,6.275,1.223V4.9A1.375,1.375,0,0,1,4.9,6.275H1.22A1.372,1.372,0,0,1-.15,4.9V1.223A1.374,1.374,0,0,1,1.223-.15ZM4.9,5.326A.424.424,0,0,0,5.326,4.9V1.223A.424.424,0,0,0,4.9.8H1.223A.424.424,0,0,0,.8,1.223V4.9a.421.421,0,0,0,.421.421Z" transform="translate(3761.591 657.025)" fill="#997ef2"/>
    <rect id="Rectangle_189" data-name="Rectangle 189" width="2.703" height="2.703" transform="translate(3763.301 658.736)" fill="#997ef2"/>
    <path id="Rectangle_190" data-name="Rectangle 190" d="M1.223-.15H4.9A1.375,1.375,0,0,1,6.275,1.223V4.9A1.373,1.373,0,0,1,4.9,6.275H1.22A1.372,1.372,0,0,1-.15,4.9V1.223A1.374,1.374,0,0,1,1.223-.15ZM4.9,5.326A.422.422,0,0,0,5.326,4.9V1.223A.424.424,0,0,0,4.9.8H1.223A.424.424,0,0,0,.8,1.223V4.9a.421.421,0,0,0,.421.421Z" transform="translate(3771.289 657.025)" fill="#997ef2"/>
    <rect id="Rectangle_191" data-name="Rectangle 191" width="2.703" height="2.703" transform="translate(3772.999 658.736)" fill="#997ef2"/>
    <path id="Rectangle_192" data-name="Rectangle 192" d="M1.223-.15H4.9A1.375,1.375,0,0,1,6.275,1.223V4.9A1.375,1.375,0,0,1,4.9,6.275H1.22A1.372,1.372,0,0,1-.15,4.9V1.223A1.374,1.374,0,0,1,1.223-.15ZM4.9,5.326A.424.424,0,0,0,5.326,4.9V1.223A.424.424,0,0,0,4.9.8H1.223A.424.424,0,0,0,.8,1.223V4.9a.421.421,0,0,0,.421.421Z" transform="translate(3761.591 666.723)" fill="#997ef2"/>
    <rect id="Rectangle_193" data-name="Rectangle 193" width="2.703" height="2.703" transform="translate(3763.301 668.434)" fill="#997ef2"/>
    <path id="Line_66" data-name="Line 66" d="M.325,6.081A.475.475,0,0,1-.15,5.606V.325a.475.475,0,0,1,.95,0V5.606A.475.475,0,0,1,.325,6.081Z" transform="translate(3771.703 664.834)" fill="#997ef2"/>
    <path id="Path_314" data-name="Path 314" d="M3764.048,660.9a.474.474,0,0,1-.336-.139l-2.522-2.524a.475.475,0,0,1,.673-.671l2.186,2.188,2.191-2.188a.475.475,0,0,1,.671.672l-2.526,2.524A.474.474,0,0,1,3764.048,660.9Z" transform="translate(7.978 10.014)" fill="#997ef2"/>
  </g>
</svg>
